# xmcd
# 
# Track frame offsets:
#     150
#     14260
#     24107
#     36927
#     50242
#     62249
#     72439
#     86672
#     99068
#     112223
#     124264
#     136045
#     149693
#     161391
#     173395
#     186801
#     199496
#     212312
#     224250
#     234736
#     245316
#     257491
#     272449
#     283110
# 
# Disc length: 3925
# 
# Revision: 2
# Processed by: cddbd v1.5.2PL0 Copyright (c) Steve Scherf et al.
# Submitted via: fre:ac v1.0.17
# 
DISCID=5c0f5318
DTITLE=Various Artist - Golden Greats:  Greatest Country Hits Disc 2
DYEAR=0
DGENRE=Country
TTITLE0=Red Foley - New Jole Blonde
TTITLE1=Jimmie Davis - There's A New Moon Over My Shoulder
TTITLE2=Elton Britt - Someday (You'll Want Me To Want You)
TTITLE3=George Morgan - Candy Kisses
TTITLE4=Roy Acuff - I'll Forgive You, But I Can't Forget
TTITLE5=Bob Wills and His Texas Playboys - Sugar Moon
TTITLE6=Ernest Tubb - Rainbow At Midnight
TTITLE7=Gene Autry - Deep In The Heart of Texas
TTITLE8=Hank Williams - Wedding Bells
TTITLE9=Red Foley - Tennessee Saturday Night
TTITLE10=Eddy Arnold - Don't Rob Another Man's Castle
TTITLE11=Bing Crosby and The Andrews Sisters - Pistol Packin' Mama
TTITLE12=Bob Wills and His Texas Playboys - Roly Poly
TTITLE13=Gene Autry - Have I Told You Lately That I Love You
TTITLE14=Pee Wee King and Redd Stewart and The Golden West Cowboys - Tennessee Waltz
TTITLE15=Tex Ritter - Singing In The Saddle
TTITLE16=Eddy Arnold - What Is Life Without Love
TTITLE17=Texas Jim Robertson - Filipino Baby
TTITLE18=Jimmie Davis - Is It Too Late Now
TTITLE19=Kenny Roberts - Choc'late Ice Cream Cone
TTITLE20=Red Foley - Tennessee Border
TTITLE21=Owen Bradley Quintet - Blues Stay Away From Me
TTITLE22=Ernest Tubb - Try Me One More Time
TTITLE23=Zeke Clements - Sioux City Sue
EXTD=
EXTT0=
EXTT1=
EXTT2=
EXTT3=
EXTT4=
EXTT5=
EXTT6=
EXTT7=
EXTT8=
EXTT9=
EXTT10=
EXTT11=
EXTT12=
EXTT13=
EXTT14=
EXTT15=
EXTT16=
EXTT17=
EXTT18=
EXTT19=
EXTT20=
EXTT21=
EXTT22=
EXTT23=
PLAYORDER=
